<svg xmlns="http://www.w3.org/2000/svg" xmlns:xlink="http://www.w3.org/1999/xlink" viewBox="0 0 1340.45 252.94"><defs><style>.cls-1{fill:none;clip-rule:evenodd;}.cls-2{fill:#38b5b5;}.cls-3{clip-path:url(#clip-path);}.cls-4{fill:url(#Degradado_sin_nombre_3);}</style><clipPath id="clip-path" transform="translate(2.29 18.3)"><path class="cls-1" d="M126.69,150.79a171.6,171.6,0,0,0,23.58,12.26l.39.13A105.15,105.15,0,0,0,206.23,168c-5.19-.3-12-1.23-11.53-1.84a35.48,35.48,0,0,0,5.34-1.23,41.22,41.22,0,0,0,5.61,2.38l0,0,0,0s.07,0,.09,0c.54.15,1.1.28,1.64.41,1.91-.39,3.83-.8,5.71-1.28-9.45.13-17.3-5.32-23.83-13.69a5.14,5.14,0,0,1-.57-6.45c9.2-8.78,18.13-15,31.54-11.79.11,0,.22.07.33.09A36.22,36.22,0,0,1,237.79,145l-3,3.2,5.58,1.32a48.35,48.35,0,0,1-12.11,12.14c28.53-11.21,53.84-32.86,74.09-57.26L278.74,97l13.8-12.9A156.65,156.65,0,0,0,221.8,34.22c-2-.71-4.06-1.38-6.12-2a124.08,124.08,0,0,0-73.91,3.31,122.17,122.17,0,0,0-15.21,6.7c-2.7,1.24-5.25,2.49-7.68,3.79H98.4a12.71,12.71,0,1,0,0,11.27h72.42a12.7,12.7,0,1,1,0,11.29H79.28a12.7,12.7,0,1,0,0,11.29h64.31a12.71,12.71,0,1,1,0,11.29H103.94a12.67,12.67,0,0,0-11.38-7h-.37l-.54,0h-.09l-.28,0h0l-.3,0h0l-.28,0h0l0,0-.24,0h-.06l-.28,0,0,0-.28.05v0h0l-.3.06h0l-.26.09h0l-.26.08-.07,0-.21.06h-.05l0,0-.26.09h0l-.28.11,0,0-.24.09,0,0-.83.39h0l-.23.13h0l0,0c-.26.15-.5.28-.74.43l0,0,0,0-.21.13,0,0h0l-.23.17h0l0,0-.19.13,0,0-.17.13,0,0h0l-.2.17,0,0,0,0c-.15.11-.28.24-.43.37h0l-.15.15-.06.07-.07.06-.1.11,0,0,0,0-.13.16,0,0,0,0,0,0-.15.17,0,0,0,0-.2.19v0l-.15.18h0a12.69,12.69,0,0,0,2.73,18.69h0l.15.1,0,0h0l.09.06.09,0,.08.07h0v0l.2.11,0,0h0l.24.13h0v0l.09,0,.11,0,.08,0,0,0,.2.09.06,0,0,0,.19.09,0,0h0l.23.11,0,0h0l.19.09.07,0,0,0,.11,0,.11,0,0,0,.09,0,.21.09h0l.22.06.08,0,0,0h0L89,109h0l.08,0,.11,0,.11,0h0l.24.06.08,0,.11,0,.11,0,.07,0h0l.26,0h0l0,0,.26.05h.07l.21,0h.07l.3,0,0,0h0l.28,0h0a4.16,4.16,0,0,0,.6,0h.07l.3,0a12.68,12.68,0,0,0,11.38-7.08h35.28v0H143l.58,0H145l30,0a12.69,12.69,0,1,1,0,11.26H77.89a12.7,12.7,0,1,0,0,11.3h41.58a12.7,12.7,0,1,1,0,11.29h-12.4a150.52,150.52,0,0,0,19.62,14.47Zm100.43-6.6a2.18,2.18,0,1,1,2.34,2,2.18,2.18,0,0,1-2.34-2Zm-52.77,19.88c7-1.95,11.57-7.85,11.11-14.21s-5.84-11.55-13-12.53a18.92,18.92,0,0,1,1.91,26.74Zm45-31.62c-5-2.21-10.93-2.32-16.31-2.12-7.06.21-2.86,2.33-1.17,4.08a30.85,30.85,0,0,1,17.48-2ZM0,156.5c30.67-6.34,52.35-30.31,52.35-57.91S30.67,47,0,40.71C32.17,74.15,32.17,123,0,156.5ZM74.43,74.24A6.53,6.53,0,1,1,67.9,67.7a6.53,6.53,0,0,1,6.53,6.54Zm-1.38,45.14a6.54,6.54,0,1,0-6.53,6.53,6.53,6.53,0,0,0,6.53-6.53ZM93.58,51.65A6.54,6.54,0,1,0,87,58.21a6.56,6.56,0,0,0,6.54-6.56Zm86.28,56.44a6.54,6.54,0,1,1,6.53,6.53,6.54,6.54,0,0,1-6.53-6.53ZM99.09,96.82a6.53,6.53,0,1,0-6.53,6.53,6.53,6.53,0,0,0,6.53-6.53ZM175.66,63a6.54,6.54,0,1,1,6.54,6.53A6.55,6.55,0,0,1,175.66,63ZM148.43,85.53A6.54,6.54,0,1,1,155,92.06a6.53,6.53,0,0,1-6.53-6.53Zm-24.12,45.14a6.54,6.54,0,1,1,6.54,6.53,6.53,6.53,0,0,1-6.54-6.53ZM216.76,24.4C196,13.32,170.41,11.1,147.16,10.21c-30.48-1.15-13,9.21-6.26,17.33a132.16,132.16,0,0,1,75.86-3.14Zm-92.9,133.85A152.73,152.73,0,0,1,100.39,162c-2.86,3,41,11.4,62.32,12.85A114.58,114.58,0,0,1,148,170.58l-.41-.15-.2-.07-.19-.08a174.43,174.43,0,0,1-23.34-12Zm123-80.88a9.4,9.4,0,1,1,9.41,9.39,9.42,9.42,0,0,1-9.41-9.39Z"/></clipPath><linearGradient id="Degradado_sin_nombre_3" y1="97.2" x2="307.01" y2="97.2" gradientUnits="userSpaceOnUse"><stop offset="0" stop-color="#56b8e7"/><stop offset="1" stop-color="#0ecbb2"/></linearGradient></defs><g id="Capa_2" data-name="Capa 2"><g id="Layer_1" data-name="Layer 1"><g id="Grupo_3" data-name="Grupo 3"><path id="Trazado_258" data-name="Trazado 258" class="cls-2" d="M339,178.14V10.76h35.49V178.14Z" transform="translate(2.29 18.3)"/><path id="Trazado_259" data-name="Trazado 259" class="cls-2" d="M448.69,178.14H413.78V10.76h95.93V39.84h-61V83h56.78v29H448.7Z" transform="translate(2.29 18.3)"/><path id="Trazado_260" data-name="Trazado 260" class="cls-2" d="M618.18,178.14l-6.76-17.4h-.91a51.7,51.7,0,0,1-18.15,15.4A58.68,58.68,0,0,1,568,180.43a39.32,39.32,0,0,1-29-10.53,40.45,40.45,0,0,1-10.59-30,33.81,33.81,0,0,1,14.25-30.06,82.63,82.63,0,0,1,43-10.7l22.21-.68V92.89a17.41,17.41,0,0,0-15-19.52,17.19,17.19,0,0,0-4.91,0,90.84,90.84,0,0,0-36.06,9.28L540.37,59.11a104.2,104.2,0,0,1,49-11.56,61.08,61.08,0,0,1,39.5,11.22A41.44,41.44,0,0,1,642.6,92.89v85.26Zm-10.3-59.31-13.55.46a43.2,43.2,0,0,0-22.67,5.5,17.27,17.27,0,0,0-7.44,15.33q0,14.77,16.94,14.77a26.82,26.82,0,0,0,19.4-7,24.53,24.53,0,0,0,7.27-18.55Z" transform="translate(2.29 18.3)"/><path id="Trazado_261" data-name="Trazado 261" class="cls-2" d="M747.14,47.74a56.14,56.14,0,0,1,11.79,1L756.3,81.5A40.14,40.14,0,0,0,746,80.36,37,37,0,0,0,720,89a31.07,31.07,0,0,0-9.33,24v65.14H675.71v-128h26.44l5.15,21.52H709A48.18,48.18,0,0,1,725.1,54.31,39.6,39.6,0,0,1,747.14,47.74Z" transform="translate(2.29 18.3)"/><path id="Trazado_262" data-name="Trazado 262" class="cls-2" d="M894,178.13H859V103.41a37.62,37.62,0,0,0-4.63-20.78,16.31,16.31,0,0,0-14.6-6.93,21.16,21.16,0,0,0-19.46,9.85,64.52,64.52,0,0,0-6.06,32.4v60.21H779.36v-128H806l4.69,16.38h1.95a35.45,35.45,0,0,1,14.88-13.8,48.42,48.42,0,0,1,22.31-5q28.74,0,38.92,18.78h3.1A34.5,34.5,0,0,1,907,52.66a50.54,50.54,0,0,1,22.62-4.92,44.58,44.58,0,0,1,32.91,11.15,49,49,0,0,1,11.16,35.78v83.45H938.65V103.41A37.71,37.71,0,0,0,934,82.63a16.31,16.31,0,0,0-14.6-6.93,21.77,21.77,0,0,0-19.17,9.16,52,52,0,0,0-6.38,29.07Z" transform="translate(2.29 18.3)"/><path id="Trazado_263" data-name="Trazado 263" class="cls-2" d="M1005.27,17.06q0-17.05,19-17.06t19,17.06a16.61,16.61,0,0,1-4.78,12.65,20,20,0,0,1-14.25,4.53Q1005.27,34.22,1005.27,17.06Zm36.4,161.08h-34.91v-128h34.91Z" transform="translate(2.29 18.3)"/><path id="Trazado_264" data-name="Trazado 264" class="cls-2" d="M1193.64,178.13h-34.91V103.41a35.93,35.93,0,0,0-4.93-20.78,17.91,17.91,0,0,0-15.68-6.93,23.6,23.6,0,0,0-21.18,9.79,60.72,60.72,0,0,0-6.53,32.45v60.21H1075.5v-128h26.67l4.69,16.38h2a36.87,36.87,0,0,1,16.09-14,54.78,54.78,0,0,1,23.29-4.78,44.76,44.76,0,0,1,33.89,12.08,48.44,48.44,0,0,1,11.56,34.86Z" transform="translate(2.29 18.3)"/><path id="Trazado_265" data-name="Trazado 265" class="cls-2" d="M1338.16,50.14V67.89l-20,5.15a34.87,34.87,0,0,1,5.49,19.24,38.82,38.82,0,0,1-14.34,32.11,62.19,62.19,0,0,1-39.89,11.5l-6.3-.34-5.15-.57a11.58,11.58,0,0,0-5.38,9.15q0,7.56,19.23,7.55h21.75a49.66,49.66,0,0,1,32.12,9,32.35,32.35,0,0,1,11,26.56,39.4,39.4,0,0,1-18.72,34.8,97.58,97.58,0,0,1-53.75,12.37,74.47,74.47,0,0,1-40.93-9.33A29.66,29.66,0,0,1,1209.17,199a27.42,27.42,0,0,1,7.21-19.35,41,41,0,0,1,21.18-11.11,23.37,23.37,0,0,1-9.39-7.49,18.44,18.44,0,0,1,.24-23.25,49,49,0,0,1,12.24-9.56,34.35,34.35,0,0,1-15.93-14,42.54,42.54,0,0,1-5.9-22.66,40,40,0,0,1,13.63-32.4,58.89,58.89,0,0,1,38.92-11.45,98.94,98.94,0,0,1,12.75,1q7.38,1,9.44,1.43Zm-98.8,146.08a12.66,12.66,0,0,0,6.92,11.33,38.15,38.15,0,0,0,19.4,4.12,68.62,68.62,0,0,0,29.42-5.16,15.68,15.68,0,0,0,10.64-14.08,10,10,0,0,0-6.29-10,51.68,51.68,0,0,0-19.46-2.75h-18.11a27.42,27.42,0,0,0-16.09,4.53,14,14,0,0,0-6.43,12ZM1252.06,92a26.07,26.07,0,0,0,4.79,16.48,17.24,17.24,0,0,0,14.48,6.07,16.92,16.92,0,0,0,14.43-6.07A26.85,26.85,0,0,0,1290.34,92q0-23.12-19-23.11-19.26,0-19.26,23.11Z" transform="translate(2.29 18.3)"/></g><g class="cls-3"><rect class="cls-4" width="307.01" height="194.39"/></g></g></g></svg>