<svg xmlns="http://www.w3.org/2000/svg" xmlns:xlink="http://www.w3.org/1999/xlink" viewBox="0 0 332 196.15"><defs><style>.cls-1{fill:url(#Degradado_sin_nombre_12);}.cls-2{fill:url(#Degradado_sin_nombre_12-2);}.cls-3{fill:url(#Degradado_sin_nombre_12-3);}.cls-4{fill:url(#Degradado_sin_nombre_12-4);}.cls-5{fill:url(#Degradado_sin_nombre_12-5);}.cls-6{fill:url(#Degradado_sin_nombre_12-6);}.cls-7{fill:url(#Degradado_sin_nombre_12-7);}.cls-8{fill:url(#Degradado_sin_nombre_12-8);}.cls-9{fill:#fff;}.cls-10{fill:url(#Degradado_sin_nombre_12-9);}.cls-11{fill:url(#Degradado_sin_nombre_12-10);}.cls-12{fill:url(#Degradado_sin_nombre_12-11);}.cls-13{fill:url(#Degradado_sin_nombre_12-12);}.cls-14{fill-rule:evenodd;fill:url(#Degradado_sin_nombre_3);}</style><linearGradient id="Degradado_sin_nombre_12" x1="-268.87" y1="-2919.35" x2="-268.87" y2="-2920.35" gradientTransform="matrix(35.54, 0, 0, -35.54, 9825.25, -103747.82)" gradientUnits="userSpaceOnUse"><stop offset="0" stop-color="#13cab6"/><stop offset="1" stop-color="#55b8e7"/></linearGradient><linearGradient id="Degradado_sin_nombre_12-2" x1="-270.95" y1="-3321.79" x2="-270.95" y2="-3322.79" gradientTransform="matrix(7, 0, 0, -7, 1999.65, -23089.04)" xlink:href="#Degradado_sin_nombre_12"/><linearGradient id="Degradado_sin_nombre_12-3" x1="-268.72" y1="-2890.08" x2="-268.72" y2="-2891.08" gradientTransform="matrix(50.5, 0, 0, -50.5, 13877.41, -145903.51)" xlink:href="#Degradado_sin_nombre_12"/><linearGradient id="Degradado_sin_nombre_12-4" x1="-269.16" y1="-2976.97" x2="-269.16" y2="-2977.97" gradientTransform="matrix(22.45, 0, 0, -22.45, 6329.71, -66679.95)" xlink:href="#Degradado_sin_nombre_12"/><linearGradient id="Degradado_sin_nombre_12-5" x1="-285.31" y1="-3032.58" x2="-285.31" y2="-3033.58" gradientTransform="matrix(26.11, -3.21, -2, -16.3, 1623.15, -50172.5)" xlink:href="#Degradado_sin_nombre_12"/><linearGradient id="Degradado_sin_nombre_12-6" x1="-312.26" y1="-4523.96" x2="-312.26" y2="-4524.96" gradientTransform="matrix(10.08, -1.24, -0.25, -2.03, 2261.76, -9388.63)" xlink:href="#Degradado_sin_nombre_12"/><linearGradient id="Degradado_sin_nombre_12-7" x1="-338.64" y1="-5177.91" x2="-338.64" y2="-5178.91" gradientTransform="matrix(6.3, -0.77, -0.18, -1.47, 1439.65, -7658.52)" xlink:href="#Degradado_sin_nombre_12"/><linearGradient id="Degradado_sin_nombre_12-8" x1="-337.79" y1="-3082.05" x2="-337.79" y2="-3083.05" gradientTransform="matrix(6.37, -0.78, -1.62, -13.22, -2622, -40819.55)" xlink:href="#Degradado_sin_nombre_12"/><linearGradient id="Degradado_sin_nombre_12-9" x1="-227.77" y1="-3024.2" x2="-227.77" y2="-3025.2" gradientTransform="matrix(25.02, 8.13, 5.08, -15.62, 21122.85, -45210.76)" xlink:href="#Degradado_sin_nombre_12"/><linearGradient id="Degradado_sin_nombre_12-10" x1="-163.21" y1="-4456.63" x2="-163.21" y2="-4457.63" gradientTransform="matrix(9.66, 3.14, 0.63, -1.94, 4466.55, -7980.35)" xlink:href="#Degradado_sin_nombre_12"/><linearGradient id="Degradado_sin_nombre_12-11" x1="-100.04" y1="-5084.74" x2="-100.04" y2="-5085.74" gradientTransform="matrix(6.03, 1.96, 0.46, -1.4, 2990.38, -6759.85)" xlink:href="#Degradado_sin_nombre_12"/><linearGradient id="Degradado_sin_nombre_12-12" x1="-102.09" y1="-3071.71" x2="-102.09" y2="-3072.71" gradientTransform="matrix(6.11, 1.98, 4.11, -12.66, 13323.17, -38528.59)" xlink:href="#Degradado_sin_nombre_12"/><linearGradient id="Degradado_sin_nombre_3" y1="93.39" x2="259.3" y2="93.39" gradientUnits="userSpaceOnUse"><stop offset="0" stop-color="#56b8e7"/><stop offset="1" stop-color="#0ecbb2"/></linearGradient></defs><g id="Capa_2" data-name="Capa 2"><g id="Layer_1" data-name="Layer 1"><g id="Grupo_4942" data-name="Grupo 4942"><circle id="Elipse_46" data-name="Elipse 46" class="cls-1" cx="270.27" cy="17.77" r="17.77"/><circle id="Elipse_53" data-name="Elipse 53" class="cls-2" cx="101.93" cy="180.27" r="3.5"/><circle id="Elipse_51" data-name="Elipse 51" class="cls-3" cx="306.75" cy="76.5" r="25.25"/><circle id="Elipse_52" data-name="Elipse 52" class="cls-4" cx="288.04" cy="152.25" r="11.22"/><g id="Grupo_4878" data-name="Grupo 4878"><g id="Grupo_4757" data-name="Grupo 4757"><path id="Trazado_268" data-name="Trazado 268" class="cls-5" d="M255.63,184.44l1.24-1.75a18.09,18.09,0,0,0-3.36-2.25,15.77,15.77,0,0,0-8.79-1.94,14.27,14.27,0,0,0-4.44,1.15,16.21,16.21,0,0,0-4.19,2.86,35,35,0,0,0-2.58,2.73,3.59,3.59,0,0,0-1.21,2.28,2.7,2.7,0,0,0,.19,1c.22.6.63,1.25,2.93,3,.74.57,1.11.86,1.56,1.15a14.63,14.63,0,0,0,5.52,2.17,13.28,13.28,0,0,0,3.45,0,14.07,14.07,0,0,0,7.26-3.31,19.08,19.08,0,0,0,3-3.38,28.28,28.28,0,0,0,2.21-3.4Zm-2.87-.6a1.14,1.14,0,0,1-1.26-1,1.13,1.13,0,0,1,2.24-.27A1.14,1.14,0,0,1,252.76,183.84Z"/></g><path id="Trazado_269" data-name="Trazado 269" class="cls-6" d="M238.38,179.5a16.79,16.79,0,0,1,8.56-2,17.82,17.82,0,0,0-2.39-.41,18.82,18.82,0,0,0-4,.06,19.73,19.73,0,0,0-3.4.7.5.5,0,0,0-.32.25.56.56,0,0,0,0,.36Z"/><path id="Trazado_270" data-name="Trazado 270" class="cls-7" d="M236.7,195.89a9.65,9.65,0,0,0,1-.26,10.56,10.56,0,0,0,1.62-.7,17.14,17.14,0,0,0,1.71.57,16.85,16.85,0,0,0,2.11.45,22.07,22.07,0,0,1-3.81.19A22.48,22.48,0,0,1,236.7,195.89Z"/><path id="Trazado_271" data-name="Trazado 271" class="cls-8" d="M224,182.9a9.41,9.41,0,0,1,2.53,13.1c3.26-1.51,5.1-4.67,4.62-7.52a7.2,7.2,0,0,0-3.33-4.56A7.44,7.44,0,0,0,224,182.9Z"/></g><path id="Trazado_363" data-name="Trazado 363" class="cls-9" d="M283.85,17.29l-2.21-2.22a.83.83,0,0,0-1.18,0l-9.36,9.36-2.16-2.17a.85.85,0,0,0-1.18,0h0l-2.21,2.22a.83.83,0,0,0,0,1.18h0l2.72,2.73,0,0,2.22,2.21a.83.83,0,0,0,1.18,0h0l12.16-12.16a.83.83,0,0,0,0-1.18Z"/><path id="Trazado_364" data-name="Trazado 364" class="cls-9" d="M324.83,80.51l-2.09-2.09a.8.8,0,0,0-1.11,0l-8.81,8.82-2-2a.79.79,0,0,0-1.12,0h0l-2.08,2.09a.79.79,0,0,0,0,1.11h0L310.14,91l0,0,2.09,2.09a.8.8,0,0,0,1.11,0h0l11.46-11.47a.78.78,0,0,0,0-1.11Z"/><path id="Trazado_365" data-name="Trazado 365" class="cls-9" d="M297.13,153.61l-1.22-1.22a.47.47,0,0,0-.65,0h0l-5.16,5.15-1.19-1.19a.46.46,0,0,0-.65,0L287,157.57a.46.46,0,0,0,0,.65h0l1.5,1.5,0,0,1.22,1.22a.46.46,0,0,0,.65,0h0l6.7-6.71a.46.46,0,0,0,0-.65h0Z"/><g id="Grupo_4885" data-name="Grupo 4885"><g id="Grupo_4757-2" data-name="Grupo 4757-2"><path id="Trazado_268-2" data-name="Trazado 268-2" class="cls-10" d="M84.81,184.27l1.86-1.06a17.9,17.9,0,0,0-2.09-3.46,15.78,15.78,0,0,0-7.15-5.47,14.46,14.46,0,0,0-4.51-.84,16.43,16.43,0,0,0-5,.82,34.72,34.72,0,0,0-3.49,1.39,3.51,3.51,0,0,0-2.05,1.55,2.47,2.47,0,0,0-.24,1c-.06.64,0,1.4,1.37,4,.42.83.63,1.25.92,1.71a15.48,15.48,0,0,0,1.94,2.48,13.3,13.3,0,0,0,2.15,1.81,12.72,12.72,0,0,0,3.11,1.49,14.07,14.07,0,0,0,8,.07,19.22,19.22,0,0,0,4.17-1.79,27.06,27.06,0,0,0,3.44-2.14Zm-2.35-1.76a1.13,1.13,0,1,1,1.42-.73A1.12,1.12,0,0,1,82.46,182.51Z"/></g><path id="Trazado_269-2" data-name="Trazado 269-2" class="cls-11" d="M71.26,172.5a16.88,16.88,0,0,1,8.6,1.83,17.39,17.39,0,0,0-2-1.39,18.36,18.36,0,0,0-3.62-1.62,19.44,19.44,0,0,0-3.37-.8.48.48,0,0,0-.4.09.5.5,0,0,0-.18.31Z"/><path id="Trazado_270-2" data-name="Trazado 270-2" class="cls-12" d="M62.82,186.64c.32.08.65.13,1,.18a10.33,10.33,0,0,0,1.76.05c.41.43.85.85,1.3,1.24a18.07,18.07,0,0,0,1.73,1.29,20.87,20.87,0,0,1-5.77-2.76Z"/><path id="Trazado_271-2" data-name="Trazado 271-2" class="cls-13" d="M56.76,169.49a9.69,9.69,0,0,1,1,7.37,9.57,9.57,0,0,1-4.26,5.58c3.6,0,6.6-2.08,7.37-4.87A7.23,7.23,0,0,0,59.79,172,7.33,7.33,0,0,0,56.76,169.49Z"/></g><path class="cls-14" d="M108.65,143.4a147.33,147.33,0,0,0,20.22,10.52l.34.11a90.13,90.13,0,0,0,47.65,4.1c-4.45-.26-10.31-1-9.89-1.57a31.63,31.63,0,0,0,4.59-1.06,34.92,34.92,0,0,0,4.8,2l0,0,0,0h.08c.46.13,1,.25,1.41.36,1.63-.34,3.28-.69,4.9-1.1-8.11.11-14.84-4.56-20.45-11.74a4.41,4.41,0,0,1-.48-5.53c7.89-7.53,15.55-12.85,27.05-10.11l.28.08a31.11,31.11,0,0,1,14.71,8.88l-2.56,2.75,4.78,1.13a41.12,41.12,0,0,1-10.39,10.41c24.47-9.61,46.18-28.18,63.54-49.11L239,97.3l11.84-11a134.42,134.42,0,0,0-60.66-42.82c-1.75-.61-3.49-1.18-5.25-1.7a106.44,106.44,0,0,0-63.39,2.84,103.32,103.32,0,0,0-13,5.75c-2.32,1-4.51,2.13-6.59,3.24H84.39a10.9,10.9,0,1,0,0,9.67h62.1a10.89,10.89,0,1,1,0,9.68H68a10.89,10.89,0,1,0,0,9.68h55.15a10.9,10.9,0,1,1,0,9.69h-34a10.87,10.87,0,0,0-9.76-6h-.32l-.46,0h-.08l-.24,0H78l-.24,0h0l0,0-.2,0h-.06l-.24,0,0,0-.24,0v0h0l-.26,0h0l-.22.08h0l-.22.07-.06,0-.18.06h0l0,0-.22.07h0l-.24.09,0,0-.2.08h0l-.7.34h0l-.21.11h0v0l-.64.37v0l0,0-.19.11,0,0h0l-.2.14h0l0,0-.16.11,0,0-.15.11,0,0h0l-.16.15,0,0h0c-.13.1-.24.21-.37.32h0l-.13.13,0,.06-.06.05-.09.09,0,0,0,0-.11.13,0,0,0,0v0l-.13.14,0,0,0,0-.17.17v0l-.13.14h0a10.88,10.88,0,0,0,2.34,16h0l.13.09,0,0h0l.07.06.07,0,.08.05h0v0l.16.09,0,0h0l.21.11h0v0l.08,0,.09,0,.08,0v0l.17.08.06,0,0,0,.17.08h0l.2.1,0,0h0l.16.07.06,0,0,0,.09,0,.09,0,0,0,.08,0,.18.07h0l.19.06.07,0,0,0h0l.18,0h0l.08,0,.09,0,.09,0h0l.2,0,.08,0,.09,0,.09,0,.06,0h0l.22,0h0l0,0,.22,0h.06l.18,0h.32l0,0h0l.24,0h0a4.79,4.79,0,0,0,.52,0h.06l.26,0a10.89,10.89,0,0,0,9.76-6.07h30.25v0h3.23l.5,0h1.26l25.71,0a10.88,10.88,0,1,1,0,9.67H66.8a10.89,10.89,0,1,0,0,9.68h35.66a10.89,10.89,0,1,1,0,9.68H91.83a128.23,128.23,0,0,0,16.82,12.41Zm86.13-5.65a1.87,1.87,0,1,1,3.73-.26,1.86,1.86,0,0,1-1.72,2,1.88,1.88,0,0,1-2-1.72Zm-45.26,17c6-1.67,9.92-6.73,9.53-12.18s-5-9.91-11.16-10.75a16.22,16.22,0,0,1,1.63,22.93Zm38.56-27.12c-4.26-1.89-9.36-2-14-1.82-6,.19-2.45,2-1,3.51a26.42,26.42,0,0,1,15-1.69ZM0,148.3c26.3-5.43,44.89-26,44.89-49.66S26.3,54.42,0,49c27.58,28.68,27.58,70.6,0,99.3ZM63.83,77.75a5.6,5.6,0,1,1-5.6-5.6,5.59,5.59,0,0,1,5.6,5.6Zm-1.18,38.72a5.61,5.61,0,1,0-5.61,5.6,5.6,5.6,0,0,0,5.61-5.6Zm17.6-58.08A5.6,5.6,0,1,0,74.65,64a5.63,5.63,0,0,0,5.6-5.62Zm74,48.39a5.6,5.6,0,1,1,5.6,5.61,5.6,5.6,0,0,1-5.6-5.61ZM85,97.12a5.6,5.6,0,1,0-5.6,5.6,5.59,5.59,0,0,0,5.6-5.6Zm65.67-29.05a5.6,5.6,0,1,1,5.6,5.6,5.6,5.6,0,0,1-5.6-5.6ZM127.29,87.44A5.61,5.61,0,1,1,132.9,93a5.61,5.61,0,0,1-5.61-5.6Zm-20.68,38.71a5.61,5.61,0,1,1,5.6,5.6,5.59,5.59,0,0,1-5.6-5.6ZM185.9,35c-17.81-9.5-39.76-11.41-59.7-12.17-26.14-1-11.17,7.91-5.36,14.86A113.4,113.4,0,0,1,185.9,35ZM106.22,149.8A131.22,131.22,0,0,1,86.09,153c-2.45,2.55,35.19,9.78,53.45,11a97.9,97.9,0,0,1-12.62-3.63,2.19,2.19,0,0,0-.35-.13l-.17-.06-.16-.07a149.07,149.07,0,0,1-20-10.32ZM211.7,80.44a8.06,8.06,0,1,1,8.07,8,8.08,8.08,0,0,1-8.07-8Z"/></g></g></g></svg>